# xmcd CD database file
# Copyright (C) 1997 Ti Kan
# 
# Track frame offsets:
#     187
#     12637
#     25350
#     34275
#     44287
#     55762
#     65212
#     75412
#     86662
#     96037
#     106500
#     117525
#     127312
#     138525
# 
# Disc length: 1975 seconds
# 
# Revision: 1
# Processed by: cddbd v1.4b41PL1 Copyright (c) Steve Scherf et al.
# Submitted via: DiscPlay 4.0.4
# 
DISCID=c407b50e
DTITLE=Boozoo Chavis - The Lake Charles Atomic Bomb
DYEAR=1900
DGENRE=
TTITLE0=Paper In My Shoe
TTITLE1=Forty One Days
TTITLE2=Hamburgers and Prpcorn
TTITLE3=Oh Yae Yae
TTITLE4=My Love Just for You
TTITLE5=Pallet on the Floor
TTITLE6=Oh Ho She's Gone
TTITLE7=Bye Bye Catin
TTITLE8=Brand New Mojo
TTITLE9=Telephone Won't Ring
TTITLE10=Tee Black
TTITLE11=Bottle Up and Go
TTITLE12=Comma Lemma Chapo Sha
TTITLE13=Lost the Paper in My Shoe
EXTD=
EXTT0=
EXTT1=
EXTT2=
EXTT3=
EXTT4=
EXTT5=
EXTT6=
EXTT7=
EXTT8=
EXTT9=
EXTT10=
EXTT11=
EXTT12=
EXTT13=
PLAYORDER=
